<mxfile host="app.diagrams.net" modified="2023-06-11T11:35:29.291Z" agent="Mozilla/5.0 (Windows NT 10.0; Win64; x64) AppleWebKit/537.36 (KHTML, like Gecko) Chrome/114.0.0.0 Safari/537.36" etag="ge9Nq2tstAz2LecMWxij" version="21.3.8" type="github">
  <diagram name="Page-1" id="c7558073-3199-34d8-9f00-42111426c3f3">
    <mxGraphModel dx="1170" dy="-443" grid="1" gridSize="10" guides="1" tooltips="1" connect="1" arrows="1" fold="1" page="1" pageScale="1" pageWidth="826" pageHeight="1169" background="none" math="0" shadow="0">
      <root>
        <mxCell id="0" />
        <mxCell id="1" parent="0" />
        <mxCell id="Op8U9jAD9B8zYXzHSv14-112" style="edgeStyle=orthogonalEdgeStyle;rounded=0;orthogonalLoop=1;jettySize=auto;html=1;entryX=0;entryY=0.5;entryDx=0;entryDy=0;" edge="1" parent="1" source="Op8U9jAD9B8zYXzHSv14-97" target="Op8U9jAD9B8zYXzHSv14-111">
          <mxGeometry relative="1" as="geometry" />
        </mxCell>
        <mxCell id="Op8U9jAD9B8zYXzHSv14-157" style="edgeStyle=orthogonalEdgeStyle;rounded=0;orthogonalLoop=1;jettySize=auto;html=1;" edge="1" parent="1" source="Op8U9jAD9B8zYXzHSv14-97" target="Op8U9jAD9B8zYXzHSv14-133">
          <mxGeometry relative="1" as="geometry" />
        </mxCell>
        <mxCell id="Op8U9jAD9B8zYXzHSv14-97" value="Client" style="html=1;whiteSpace=wrap;" vertex="1" parent="1">
          <mxGeometry x="165" y="1530" width="90" height="50" as="geometry" />
        </mxCell>
        <mxCell id="Op8U9jAD9B8zYXzHSv14-113" style="edgeStyle=orthogonalEdgeStyle;rounded=0;orthogonalLoop=1;jettySize=auto;html=1;entryX=1;entryY=0.5;entryDx=0;entryDy=0;" edge="1" parent="1" source="Op8U9jAD9B8zYXzHSv14-111" target="Op8U9jAD9B8zYXzHSv14-97">
          <mxGeometry relative="1" as="geometry" />
        </mxCell>
        <mxCell id="Op8U9jAD9B8zYXzHSv14-111" value="Server" style="html=1;whiteSpace=wrap;" vertex="1" parent="1">
          <mxGeometry x="453" y="1530" width="110" height="50" as="geometry" />
        </mxCell>
        <mxCell id="Op8U9jAD9B8zYXzHSv14-133" value="CRUD" style="swimlane;fontStyle=0;childLayout=stackLayout;horizontal=1;startSize=26;fillColor=none;horizontalStack=0;resizeParent=1;resizeParentMax=0;resizeLast=0;collapsible=1;marginBottom=0;whiteSpace=wrap;html=1;" vertex="1" parent="1">
          <mxGeometry x="140" y="1640" width="140" height="130" as="geometry" />
        </mxCell>
        <mxCell id="Op8U9jAD9B8zYXzHSv14-135" value="+ READ" style="text;strokeColor=none;fillColor=none;align=left;verticalAlign=top;spacingLeft=4;spacingRight=4;overflow=hidden;rotatable=0;points=[[0,0.5],[1,0.5]];portConstraint=eastwest;whiteSpace=wrap;html=1;" vertex="1" parent="Op8U9jAD9B8zYXzHSv14-133">
          <mxGeometry y="26" width="140" height="26" as="geometry" />
        </mxCell>
        <mxCell id="Op8U9jAD9B8zYXzHSv14-134" value="+ CREATE" style="text;strokeColor=none;fillColor=none;align=left;verticalAlign=top;spacingLeft=4;spacingRight=4;overflow=hidden;rotatable=0;points=[[0,0.5],[1,0.5]];portConstraint=eastwest;whiteSpace=wrap;html=1;" vertex="1" parent="Op8U9jAD9B8zYXzHSv14-133">
          <mxGeometry y="52" width="140" height="26" as="geometry" />
        </mxCell>
        <mxCell id="Op8U9jAD9B8zYXzHSv14-136" value="+ UPDATE&lt;br&gt;" style="text;strokeColor=none;fillColor=none;align=left;verticalAlign=top;spacingLeft=4;spacingRight=4;overflow=hidden;rotatable=0;points=[[0,0.5],[1,0.5]];portConstraint=eastwest;whiteSpace=wrap;html=1;" vertex="1" parent="Op8U9jAD9B8zYXzHSv14-133">
          <mxGeometry y="78" width="140" height="26" as="geometry" />
        </mxCell>
        <mxCell id="Op8U9jAD9B8zYXzHSv14-137" value="+ DELETE" style="text;strokeColor=none;fillColor=none;align=left;verticalAlign=top;spacingLeft=4;spacingRight=4;overflow=hidden;rotatable=0;points=[[0,0.5],[1,0.5]];portConstraint=eastwest;whiteSpace=wrap;html=1;" vertex="1" parent="Op8U9jAD9B8zYXzHSv14-133">
          <mxGeometry y="104" width="140" height="26" as="geometry" />
        </mxCell>
        <mxCell id="Op8U9jAD9B8zYXzHSv14-149" style="edgeStyle=orthogonalEdgeStyle;rounded=0;orthogonalLoop=1;jettySize=auto;html=1;" edge="1" parent="1" source="Op8U9jAD9B8zYXzHSv14-141" target="Op8U9jAD9B8zYXzHSv14-111">
          <mxGeometry relative="1" as="geometry" />
        </mxCell>
        <mxCell id="Op8U9jAD9B8zYXzHSv14-141" value="/api POST" style="rounded=1;whiteSpace=wrap;html=1;arcSize=40;fontColor=#000000;fillColor=#ffffc0;strokeColor=#ff0000;" vertex="1" parent="1">
          <mxGeometry x="325" y="1711" width="120" height="40" as="geometry" />
        </mxCell>
        <mxCell id="Op8U9jAD9B8zYXzHSv14-143" style="edgeStyle=orthogonalEdgeStyle;rounded=0;orthogonalLoop=1;jettySize=auto;html=1;entryX=0;entryY=0.5;entryDx=0;entryDy=0;" edge="1" parent="1" source="Op8U9jAD9B8zYXzHSv14-134" target="Op8U9jAD9B8zYXzHSv14-141">
          <mxGeometry relative="1" as="geometry" />
        </mxCell>
        <mxCell id="Op8U9jAD9B8zYXzHSv14-146" style="edgeStyle=orthogonalEdgeStyle;rounded=0;orthogonalLoop=1;jettySize=auto;html=1;entryX=0;entryY=0.5;entryDx=0;entryDy=0;" edge="1" parent="1" source="Op8U9jAD9B8zYXzHSv14-136" target="Op8U9jAD9B8zYXzHSv14-141">
          <mxGeometry relative="1" as="geometry" />
        </mxCell>
        <mxCell id="Op8U9jAD9B8zYXzHSv14-147" style="edgeStyle=orthogonalEdgeStyle;rounded=0;orthogonalLoop=1;jettySize=auto;html=1;entryX=0;entryY=0.5;entryDx=0;entryDy=0;" edge="1" parent="1" source="Op8U9jAD9B8zYXzHSv14-137" target="Op8U9jAD9B8zYXzHSv14-141">
          <mxGeometry relative="1" as="geometry" />
        </mxCell>
        <mxCell id="Op8U9jAD9B8zYXzHSv14-155" style="edgeStyle=orthogonalEdgeStyle;rounded=0;orthogonalLoop=1;jettySize=auto;html=1;" edge="1" parent="1" source="Op8U9jAD9B8zYXzHSv14-151" target="Op8U9jAD9B8zYXzHSv14-111">
          <mxGeometry relative="1" as="geometry" />
        </mxCell>
        <mxCell id="Op8U9jAD9B8zYXzHSv14-151" value="/api GET" style="rounded=1;whiteSpace=wrap;html=1;arcSize=40;fontColor=#000000;fillColor=#ffffc0;strokeColor=#ff0000;" vertex="1" parent="1">
          <mxGeometry x="325" y="1640" width="120" height="40" as="geometry" />
        </mxCell>
        <mxCell id="Op8U9jAD9B8zYXzHSv14-153" style="edgeStyle=orthogonalEdgeStyle;rounded=0;orthogonalLoop=1;jettySize=auto;html=1;" edge="1" parent="1" source="Op8U9jAD9B8zYXzHSv14-135" target="Op8U9jAD9B8zYXzHSv14-151">
          <mxGeometry relative="1" as="geometry" />
        </mxCell>
      </root>
    </mxGraphModel>
  </diagram>
</mxfile>
